# xmcd
#
# Track frame offsets:
#	150
#	23195
#	42292
#	56227
#	70912
#	86160
#	103856
#	120958
#	138360
#	154991
#	169181
#	187774
#	204951
#	219962
#	238079
#	262660
#	280560
#
# Disc length: 3955 seconds
#
# Revision: 1
# Processed by: cddbd v1.5.2PL0 Copyright (c) Steve Scherf et al.
# Submitted via: audiograbber 1.83.01
#
DISCID=e60f7111
DTITLE=Chartbuster - esp492-05
DYEAR=2008
DGENRE=cd+g
TTITLE0=Dierks Bentley and Sarah Buxton - Sweet and Wild
TTITLE1=Brad Paisley and Keith Urban - Start A Band
TTITLE2=Jessica Simpson - Come On Over
TTITLE3=Darius Rucker - Don't Think I Don't Think About It
TTITLE4=Lady Antebellum - Lookin' For A Good Time
TTITLE5=Faith Hill - Red Umbrella
TTITLE6=Zac Brown Band - Chicken Fried
TTITLE7=Toby Keith - She Never Cried In Front Of Me
TTITLE8=Julianne Hough - My Hallelujah Song
TTITLE9=Cris Cagle - What Kinda Gone
TTITLE10=Billy Currington - Don't
TTITLE11=Crystal Shawanda - You Can Let Go
TTITLE12=Jake Owen - Don't Think I Can't Love you
TTITLE13=Craig Morgan - Love Remembers
TTITLE14=LeAnn Rimes - What I Cannot Change
TTITLE15=Jason Aldean - Relentless
TTITLE16=Jeff Bates - Don't Hate Me For Lovin' You
EXTD=
EXTT0=
EXTT1=
EXTT2=
EXTT3=
EXTT4=
EXTT5=
EXTT6=
EXTT7=
EXTT8=
EXTT9=
EXTT10=
EXTT11=
EXTT12=
EXTT13=
EXTT14=
EXTT15=
EXTT16=
PLAYORDER=
